<?xml version="1.0" encoding="UTF-8" standalone="no"?>
<!DOCTYPE svg PUBLIC "-//W3C//DTD SVG 1.1//EN"
 "http://www.w3.org/Graphics/SVG/1.1/DTD/svg11.dtd">
<!-- Generated by graphviz version 2.43.0 (0)
 -->
<!-- Title: Project Pages: 1 -->
<svg width="3463pt" height="116pt"
 viewBox="0.00 0.00 3462.88 116.00" xmlns="http://www.w3.org/2000/svg" xmlns:xlink="http://www.w3.org/1999/xlink">
<g id="graph0" class="graph" transform="scale(1 1) rotate(0) translate(4 112)">
<title>Project</title>
<polygon fill="white" stroke="transparent" points="-4,4 -4,-112 3458.88,-112 3458.88,4 -4,4"/>
<!-- generate_view_dataset.py -->
<g id="node1" class="node">
<title>generate_view_dataset.py</title>
<ellipse fill="none" stroke="black" cx="131.29" cy="-90" rx="131.08" ry="18"/>
<text text-anchor="middle" x="131.29" y="-86.3" font-family="Times,serif" font-size="14.00">generate_view_dataset.py</text>
</g>
<!-- ViewData -->
<g id="node2" class="node">
<title>ViewData</title>
<ellipse fill="none" stroke="black" cx="558.29" cy="-18" rx="55.49" ry="18"/>
<text text-anchor="middle" x="558.29" y="-14.3" font-family="Times,serif" font-size="14.00">ViewData</text>
</g>
<!-- generate_view_dataset.py&#45;&gt;ViewData -->
<g id="edge1" class="edge">
<title>generate_view_dataset.py&#45;&gt;ViewData</title>
<path fill="none" stroke="black" d="M212.11,-75.75C296.05,-61.99 425.32,-40.8 499.85,-28.58"/>
<polygon fill="black" stroke="black" points="500.69,-31.99 510,-26.92 499.56,-25.08 500.69,-31.99"/>
</g>
<!-- results_visual.py -->
<g id="node3" class="node">
<title>results_visual.py</title>
<ellipse fill="none" stroke="black" cx="1257.29" cy="-90" rx="89.08" ry="18"/>
<text text-anchor="middle" x="1257.29" y="-86.3" font-family="Times,serif" font-size="14.00">results_visual.py</text>
</g>
<!-- utility.py -->
<g id="node4" class="node">
<title>utility.py</title>
<ellipse fill="none" stroke="black" cx="1415.29" cy="-90" rx="51.19" ry="18"/>
<text text-anchor="middle" x="1415.29" y="-86.3" font-family="Times,serif" font-size="14.00">utility.py</text>
</g>
<!-- rgbd_view.py -->
<g id="node5" class="node">
<title>rgbd_view.py</title>
<ellipse fill="none" stroke="black" cx="1556.29" cy="-90" rx="71.49" ry="18"/>
<text text-anchor="middle" x="1556.29" y="-86.3" font-family="Times,serif" font-size="14.00">rgbd_view.py</text>
</g>
<!-- prevoxelization.py -->
<g id="node6" class="node">
<title>prevoxelization.py</title>
<ellipse fill="none" stroke="black" cx="1742.29" cy="-90" rx="96.38" ry="18"/>
<text text-anchor="middle" x="1742.29" y="-86.3" font-family="Times,serif" font-size="14.00">prevoxelization.py</text>
</g>
<!-- par.py -->
<g id="node7" class="node">
<title>par.py</title>
<ellipse fill="none" stroke="black" cx="1896.29" cy="-90" rx="39.79" ry="18"/>
<text text-anchor="middle" x="1896.29" y="-86.3" font-family="Times,serif" font-size="14.00">par.py</text>
</g>
<!-- multi_view_demo.py -->
<g id="node8" class="node">
<title>multi_view_demo.py</title>
<ellipse fill="none" stroke="black" cx="385.29" cy="-90" rx="104.78" ry="18"/>
<text text-anchor="middle" x="385.29" y="-86.3" font-family="Times,serif" font-size="14.00">multi_view_demo.py</text>
</g>
<!-- multi_view_demo.py&#45;&gt;ViewData -->
<g id="edge2" class="edge">
<title>multi_view_demo.py&#45;&gt;ViewData</title>
<path fill="none" stroke="black" d="M424.54,-73.12C451.65,-62.15 487.7,-47.56 515.53,-36.3"/>
<polygon fill="black" stroke="black" points="517.05,-39.46 525.01,-32.47 514.43,-32.97 517.05,-39.46"/>
</g>
<!-- demo.py -->
<g id="node9" class="node">
<title>demo.py</title>
<ellipse fill="none" stroke="black" cx="558.29" cy="-90" rx="50.09" ry="18"/>
<text text-anchor="middle" x="558.29" y="-86.3" font-family="Times,serif" font-size="14.00">demo.py</text>
</g>
<!-- demo.py&#45;&gt;ViewData -->
<g id="edge3" class="edge">
<title>demo.py&#45;&gt;ViewData</title>
<path fill="none" stroke="black" d="M558.29,-71.7C558.29,-63.98 558.29,-54.71 558.29,-46.11"/>
<polygon fill="black" stroke="black" points="561.79,-46.1 558.29,-36.1 554.79,-46.1 561.79,-46.1"/>
</g>
<!-- multi_view_cnn.py -->
<g id="node10" class="node">
<title>multi_view_cnn.py</title>
<ellipse fill="none" stroke="black" cx="2050.29" cy="-90" rx="96.38" ry="18"/>
<text text-anchor="middle" x="2050.29" y="-86.3" font-family="Times,serif" font-size="14.00">multi_view_cnn.py</text>
</g>
<!-- visualization_accuracy_and_pose.py -->
<g id="node11" class="node">
<title>visualization_accuracy_and_pose.py</title>
<ellipse fill="none" stroke="black" cx="2340.29" cy="-90" rx="176.27" ry="18"/>
<text text-anchor="middle" x="2340.29" y="-86.3" font-family="Times,serif" font-size="14.00">visualization_accuracy_and_pose.py</text>
</g>
<!-- enhance_depth.py -->
<g id="node12" class="node">
<title>enhance_depth.py</title>
<ellipse fill="none" stroke="black" cx="2629.29" cy="-90" rx="94.78" ry="18"/>
<text text-anchor="middle" x="2629.29" y="-86.3" font-family="Times,serif" font-size="14.00">enhance_depth.py</text>
</g>
<!-- generate_view_dataset_deformed.py -->
<g id="node13" class="node">
<title>generate_view_dataset_deformed.py</title>
<ellipse fill="none" stroke="black" cx="806.29" cy="-90" rx="180.07" ry="18"/>
<text text-anchor="middle" x="806.29" y="-86.3" font-family="Times,serif" font-size="14.00">generate_view_dataset_deformed.py</text>
</g>
<!-- generate_view_dataset_deformed.py&#45;&gt;ViewData -->
<g id="edge4" class="edge">
<title>generate_view_dataset_deformed.py&#45;&gt;ViewData</title>
<path fill="none" stroke="black" d="M749.08,-72.85C706.53,-60.84 649.02,-44.61 608.29,-33.11"/>
<polygon fill="black" stroke="black" points="609.16,-29.72 598.58,-30.37 607.25,-36.46 609.16,-29.72"/>
</g>
<!-- evaluation.py -->
<g id="node14" class="node">
<title>evaluation.py</title>
<ellipse fill="none" stroke="black" cx="1077.29" cy="-90" rx="73.39" ry="18"/>
<text text-anchor="middle" x="1077.29" y="-86.3" font-family="Times,serif" font-size="14.00">evaluation.py</text>
</g>
<!-- evaluation.py&#45;&gt;ViewData -->
<g id="edge5" class="edge">
<title>evaluation.py&#45;&gt;ViewData</title>
<path fill="none" stroke="black" d="M1024.48,-77.37C1014.79,-75.44 1004.76,-73.55 995.29,-72 862.49,-50.22 705.62,-33.33 620.62,-24.9"/>
<polygon fill="black" stroke="black" points="620.92,-21.41 610.62,-23.92 620.23,-28.38 620.92,-21.41"/>
</g>
<!-- entropy_model.py -->
<g id="node15" class="node">
<title>entropy_model.py</title>
<ellipse fill="none" stroke="black" cx="2835.29" cy="-90" rx="93.68" ry="18"/>
<text text-anchor="middle" x="2835.29" y="-86.3" font-family="Times,serif" font-size="14.00">entropy_model.py</text>
</g>
<!-- single_view_cnn.py -->
<g id="node16" class="node">
<title>single_view_cnn.py</title>
<ellipse fill="none" stroke="black" cx="3046.29" cy="-90" rx="99.38" ry="18"/>
<text text-anchor="middle" x="3046.29" y="-86.3" font-family="Times,serif" font-size="14.00">single_view_cnn.py</text>
</g>
<!-- StopForPlot -->
<g id="node17" class="node">
<title>StopForPlot</title>
<ellipse fill="none" stroke="black" cx="3046.29" cy="-18" rx="66.09" ry="18"/>
<text text-anchor="middle" x="3046.29" y="-14.3" font-family="Times,serif" font-size="14.00">StopForPlot</text>
</g>
<!-- single_view_cnn.py&#45;&gt;StopForPlot -->
<g id="edge6" class="edge">
<title>single_view_cnn.py&#45;&gt;StopForPlot</title>
<path fill="none" stroke="black" d="M3046.29,-71.7C3046.29,-63.98 3046.29,-54.71 3046.29,-46.11"/>
<polygon fill="black" stroke="black" points="3049.79,-46.1 3046.29,-36.1 3042.79,-46.1 3049.79,-46.1"/>
</g>
<!-- generate_entropy_dataset.py -->
<g id="node18" class="node">
<title>generate_entropy_dataset.py</title>
<ellipse fill="none" stroke="black" cx="3309.29" cy="-90" rx="145.67" ry="18"/>
<text text-anchor="middle" x="3309.29" y="-86.3" font-family="Times,serif" font-size="14.00">generate_entropy_dataset.py</text>
</g>
</g>
</svg>
