<?xml version="1.0" encoding="UTF-8" standalone="no"?>
<!DOCTYPE svg PUBLIC "-//W3C//DTD SVG 1.1//EN"
 "http://www.w3.org/Graphics/SVG/1.1/DTD/svg11.dtd">
<!-- Generated by graphviz version 2.43.0 (0)
 -->
<!-- Title: Project Pages: 1 -->
<svg width="7556pt" height="116pt"
 viewBox="0.00 0.00 7555.73 116.00" xmlns="http://www.w3.org/2000/svg" xmlns:xlink="http://www.w3.org/1999/xlink">
<g id="graph0" class="graph" transform="scale(1 1) rotate(0) translate(4 112)">
<title>Project</title>
<polygon fill="white" stroke="transparent" points="-4,4 -4,-112 7551.73,-112 7551.73,4 -4,4"/>
<!-- generate_view_dataset.py -->
<g id="node1" class="node">
<title>generate_view_dataset.py</title>
<ellipse fill="none" stroke="black" cx="4298.84" cy="-90" rx="131.08" ry="18"/>
<text text-anchor="middle" x="4298.84" y="-86.3" font-family="Times,serif" font-size="14.00">generate_view_dataset.py</text>
</g>
<!-- nonblocking_custom_capture -->
<g id="node2" class="node">
<title>nonblocking_custom_capture</title>
<ellipse fill="none" stroke="black" cx="4469.84" cy="-18" rx="144.87" ry="18"/>
<text text-anchor="middle" x="4469.84" y="-14.3" font-family="Times,serif" font-size="14.00">nonblocking_custom_capture</text>
</g>
<!-- generate_view_dataset.py&#45;&gt;nonblocking_custom_capture -->
<g id="edge1" class="edge">
<title>generate_view_dataset.py&#45;&gt;nonblocking_custom_capture</title>
<path fill="none" stroke="black" d="M4338.5,-72.76C4362.93,-62.76 4394.45,-49.86 4420.48,-39.21"/>
<polygon fill="black" stroke="black" points="4421.88,-42.42 4429.8,-35.39 4419.22,-35.94 4421.88,-42.42"/>
</g>
<!-- train -->
<g id="node3" class="node">
<title>train</title>
<ellipse fill="none" stroke="black" cx="4273.84" cy="-18" rx="33.29" ry="18"/>
<text text-anchor="middle" x="4273.84" y="-14.3" font-family="Times,serif" font-size="14.00">train</text>
</g>
<!-- generate_view_dataset.py&#45;&gt;train -->
<g id="edge2" class="edge">
<title>generate_view_dataset.py&#45;&gt;train</title>
<path fill="none" stroke="black" d="M4292.66,-71.7C4289.85,-63.81 4286.45,-54.3 4283.32,-45.55"/>
<polygon fill="black" stroke="black" points="4286.61,-44.34 4279.95,-36.1 4280.02,-46.7 4286.61,-44.34"/>
</g>
<!-- results_visual.py -->
<g id="node4" class="node">
<title>results_visual.py</title>
<ellipse fill="none" stroke="black" cx="1328.84" cy="-90" rx="89.08" ry="18"/>
<text text-anchor="middle" x="1328.84" y="-86.3" font-family="Times,serif" font-size="14.00">results_visual.py</text>
</g>
<!-- results_visual.py&#45;&gt;nonblocking_custom_capture -->
<g id="edge4" class="edge">
<title>results_visual.py&#45;&gt;nonblocking_custom_capture</title>
<path fill="none" stroke="black" d="M1417.64,-87.91C1881.98,-82.17 4020.81,-54.86 4315.84,-36 4330.6,-35.06 4346.11,-33.74 4361.39,-32.24"/>
<polygon fill="black" stroke="black" points="4361.78,-35.72 4371.38,-31.24 4361.08,-28.75 4361.78,-35.72"/>
</g>
<!-- normalize3d -->
<g id="node5" class="node">
<title>normalize3d</title>
<ellipse fill="none" stroke="black" cx="3911.84" cy="-18" rx="68.49" ry="18"/>
<text text-anchor="middle" x="3911.84" y="-14.3" font-family="Times,serif" font-size="14.00">normalize3d</text>
</g>
<!-- results_visual.py&#45;&gt;normalize3d -->
<g id="edge3" class="edge">
<title>results_visual.py&#45;&gt;normalize3d</title>
<path fill="none" stroke="black" d="M1417.75,-88.15C1835.29,-84.04 3591.46,-65.15 3834.84,-36 3841.18,-35.24 3847.75,-34.2 3854.28,-32.99"/>
<polygon fill="black" stroke="black" points="3855.31,-36.36 3864.45,-30.99 3853.96,-29.49 3855.31,-36.36"/>
</g>
<!-- entropy_distribution -->
<g id="node6" class="node">
<title>entropy_distribution</title>
<ellipse fill="none" stroke="black" cx="419.84" cy="-18" rx="105.88" ry="18"/>
<text text-anchor="middle" x="419.84" y="-14.3" font-family="Times,serif" font-size="14.00">entropy_distribution</text>
</g>
<!-- results_visual.py&#45;&gt;entropy_distribution -->
<g id="edge5" class="edge">
<title>results_visual.py&#45;&gt;entropy_distribution</title>
<path fill="none" stroke="black" d="M1242.58,-85.51C1096.57,-79.09 791.55,-63.5 534.84,-36 524.98,-34.94 514.68,-33.67 504.45,-32.29"/>
<polygon fill="black" stroke="black" points="504.66,-28.79 494.27,-30.89 503.7,-35.72 504.66,-28.79"/>
</g>
<!-- custom_parser -->
<g id="node7" class="node">
<title>custom_parser</title>
<ellipse fill="none" stroke="black" cx="4711.84" cy="-18" rx="79.09" ry="18"/>
<text text-anchor="middle" x="4711.84" y="-14.3" font-family="Times,serif" font-size="14.00">custom_parser</text>
</g>
<!-- results_visual.py&#45;&gt;custom_parser -->
<g id="edge6" class="edge">
<title>results_visual.py&#45;&gt;custom_parser</title>
<path fill="none" stroke="black" d="M1417.59,-88.01C1926.79,-82.28 4460.1,-53 4623.84,-36 4631.46,-35.21 4639.4,-34.09 4647.26,-32.81"/>
<polygon fill="black" stroke="black" points="4647.88,-36.25 4657.14,-31.1 4646.69,-29.36 4647.88,-36.25"/>
</g>
<!-- entropy_plot2 -->
<g id="node8" class="node">
<title>entropy_plot2</title>
<ellipse fill="none" stroke="black" cx="618.84" cy="-18" rx="75.29" ry="18"/>
<text text-anchor="middle" x="618.84" y="-14.3" font-family="Times,serif" font-size="14.00">entropy_plot2</text>
</g>
<!-- results_visual.py&#45;&gt;entropy_plot2 -->
<g id="edge7" class="edge">
<title>results_visual.py&#45;&gt;entropy_plot2</title>
<path fill="none" stroke="black" d="M1243.33,-84.81C1122.63,-78.2 895.62,-63.22 703.84,-36 697.04,-35.03 689.95,-33.87 682.9,-32.61"/>
<polygon fill="black" stroke="black" points="683.11,-29.09 672.64,-30.71 681.84,-35.97 683.11,-29.09"/>
</g>
<!-- entropy_plot3 -->
<g id="node9" class="node">
<title>entropy_plot3</title>
<ellipse fill="none" stroke="black" cx="787.84" cy="-18" rx="75.29" ry="18"/>
<text text-anchor="middle" x="787.84" y="-14.3" font-family="Times,serif" font-size="14.00">entropy_plot3</text>
</g>
<!-- results_visual.py&#45;&gt;entropy_plot3 -->
<g id="edge8" class="edge">
<title>results_visual.py&#45;&gt;entropy_plot3</title>
<path fill="none" stroke="black" d="M1249.31,-81.83C1157.92,-73.11 1003.58,-56.93 871.84,-36 865.33,-34.96 858.55,-33.78 851.79,-32.52"/>
<polygon fill="black" stroke="black" points="852.42,-29.08 841.94,-30.65 851.11,-35.96 852.42,-29.08"/>
</g>
<!-- entropy_prediction -->
<g id="node10" class="node">
<title>entropy_prediction</title>
<ellipse fill="none" stroke="black" cx="979.84" cy="-18" rx="98.58" ry="18"/>
<text text-anchor="middle" x="979.84" y="-14.3" font-family="Times,serif" font-size="14.00">entropy_prediction</text>
</g>
<!-- results_visual.py&#45;&gt;entropy_prediction -->
<g id="edge9" class="edge">
<title>results_visual.py&#45;&gt;entropy_prediction</title>
<path fill="none" stroke="black" d="M1268.05,-76.81C1208.45,-64.85 1117.51,-46.61 1053.76,-33.83"/>
<polygon fill="black" stroke="black" points="1054.27,-30.36 1043.77,-31.82 1052.89,-37.22 1054.27,-30.36"/>
</g>
<!-- model_sample -->
<g id="node11" class="node">
<title>model_sample</title>
<ellipse fill="none" stroke="black" cx="1172.84" cy="-18" rx="76.89" ry="18"/>
<text text-anchor="middle" x="1172.84" y="-14.3" font-family="Times,serif" font-size="14.00">model_sample</text>
</g>
<!-- results_visual.py&#45;&gt;model_sample -->
<g id="edge10" class="edge">
<title>results_visual.py&#45;&gt;model_sample</title>
<path fill="none" stroke="black" d="M1293.83,-73.29C1270.83,-62.97 1240.58,-49.4 1216.09,-38.4"/>
<polygon fill="black" stroke="black" points="1217.22,-35.08 1206.66,-34.18 1214.35,-41.46 1217.22,-35.08"/>
</g>
<!-- historyplot -->
<g id="node12" class="node">
<title>historyplot</title>
<ellipse fill="none" stroke="black" cx="1328.84" cy="-18" rx="61.99" ry="18"/>
<text text-anchor="middle" x="1328.84" y="-14.3" font-family="Times,serif" font-size="14.00">historyplot</text>
</g>
<!-- results_visual.py&#45;&gt;historyplot -->
<g id="edge11" class="edge">
<title>results_visual.py&#45;&gt;historyplot</title>
<path fill="none" stroke="black" d="M1328.84,-71.7C1328.84,-63.98 1328.84,-54.71 1328.84,-46.11"/>
<polygon fill="black" stroke="black" points="1332.34,-46.1 1328.84,-36.1 1325.34,-46.1 1332.34,-46.1"/>
</g>
<!-- conf_mat -->
<g id="node13" class="node">
<title>conf_mat</title>
<ellipse fill="none" stroke="black" cx="1460.84" cy="-18" rx="52.79" ry="18"/>
<text text-anchor="middle" x="1460.84" y="-14.3" font-family="Times,serif" font-size="14.00">conf_mat</text>
</g>
<!-- results_visual.py&#45;&gt;conf_mat -->
<g id="edge12" class="edge">
<title>results_visual.py&#45;&gt;conf_mat</title>
<path fill="none" stroke="black" d="M1359.13,-72.94C1378.53,-62.65 1403.83,-49.23 1424.35,-38.35"/>
<polygon fill="black" stroke="black" points="1426.2,-41.33 1433.4,-33.56 1422.92,-35.15 1426.2,-41.33"/>
</g>
<!-- custom_draw_geometry -->
<g id="node14" class="node">
<title>custom_draw_geometry</title>
<ellipse fill="none" stroke="black" cx="1652.84" cy="-18" rx="120.78" ry="18"/>
<text text-anchor="middle" x="1652.84" y="-14.3" font-family="Times,serif" font-size="14.00">custom_draw_geometry</text>
</g>
<!-- results_visual.py&#45;&gt;custom_draw_geometry -->
<g id="edge13" class="edge">
<title>results_visual.py&#45;&gt;custom_draw_geometry</title>
<path fill="none" stroke="black" d="M1387.52,-76.32C1440.78,-64.82 1519.63,-47.78 1577.53,-35.27"/>
<polygon fill="black" stroke="black" points="1578.33,-38.68 1587.36,-33.15 1576.85,-31.84 1578.33,-38.68"/>
</g>
<!-- object_show -->
<g id="node15" class="node">
<title>object_show</title>
<ellipse fill="none" stroke="black" cx="1858.84" cy="-18" rx="67.69" ry="18"/>
<text text-anchor="middle" x="1858.84" y="-14.3" font-family="Times,serif" font-size="14.00">object_show</text>
</g>
<!-- results_visual.py&#45;&gt;object_show -->
<g id="edge14" class="edge">
<title>results_visual.py&#45;&gt;object_show</title>
<path fill="none" stroke="black" d="M1409.16,-82.17C1500.17,-73.83 1652.78,-58.08 1782.84,-36 1788.56,-35.03 1794.5,-33.91 1800.43,-32.71"/>
<polygon fill="black" stroke="black" points="1801.27,-36.11 1810.34,-30.64 1799.83,-29.26 1801.27,-36.11"/>
</g>
<!-- plot_best_views -->
<g id="node16" class="node">
<title>plot_best_views</title>
<ellipse fill="none" stroke="black" cx="83.84" cy="-18" rx="83.69" ry="18"/>
<text text-anchor="middle" x="83.84" y="-14.3" font-family="Times,serif" font-size="14.00">plot_best_views</text>
</g>
<!-- results_visual.py&#45;&gt;plot_best_views -->
<g id="edge15" class="edge">
<title>results_visual.py&#45;&gt;plot_best_views</title>
<path fill="none" stroke="black" d="M1239.63,-88.98C1045.65,-88.05 571.21,-80.91 176.84,-36 168.96,-35.1 160.74,-33.94 152.58,-32.64"/>
<polygon fill="black" stroke="black" points="153.14,-29.18 142.7,-31 151.99,-36.09 153.14,-29.18"/>
</g>
<!-- acc_score -->
<g id="node17" class="node">
<title>acc_score</title>
<ellipse fill="none" stroke="black" cx="240.84" cy="-18" rx="55.49" ry="18"/>
<text text-anchor="middle" x="240.84" y="-14.3" font-family="Times,serif" font-size="14.00">acc_score</text>
</g>
<!-- results_visual.py&#45;&gt;acc_score -->
<g id="edge16" class="edge">
<title>results_visual.py&#45;&gt;acc_score</title>
<path fill="none" stroke="black" d="M1241.07,-86.8C1027.3,-81.07 484.11,-64.13 304.84,-36 300.05,-35.25 295.11,-34.28 290.19,-33.2"/>
<polygon fill="black" stroke="black" points="290.71,-29.72 280.17,-30.82 289.09,-36.53 290.71,-29.72"/>
</g>
<!-- main -->
<g id="node18" class="node">
<title>main</title>
<ellipse fill="none" stroke="black" cx="5268.84" cy="-18" rx="33.6" ry="18"/>
<text text-anchor="middle" x="5268.84" y="-14.3" font-family="Times,serif" font-size="14.00">main</text>
</g>
<!-- results_visual.py&#45;&gt;main -->
<g id="edge17" class="edge">
<title>results_visual.py&#45;&gt;main</title>
<path fill="none" stroke="black" d="M1417.78,-88.01C1994.07,-81.56 5177.55,-45.54 5225.84,-36 5228.72,-35.43 5231.66,-34.68 5234.57,-33.8"/>
<polygon fill="black" stroke="black" points="5235.97,-37.02 5244.29,-30.47 5233.7,-30.4 5235.97,-37.02"/>
</g>
<!-- utility.py -->
<g id="node19" class="node">
<title>utility.py</title>
<ellipse fill="none" stroke="black" cx="3089.84" cy="-90" rx="51.19" ry="18"/>
<text text-anchor="middle" x="3089.84" y="-86.3" font-family="Times,serif" font-size="14.00">utility.py</text>
</g>
<!-- utility.py&#45;&gt;normalize3d -->
<g id="edge19" class="edge">
<title>utility.py&#45;&gt;normalize3d</title>
<path fill="none" stroke="black" d="M3140.31,-86.38C3285.1,-78.69 3700.1,-55.56 3834.84,-36 3840.98,-35.11 3847.35,-34 3853.69,-32.78"/>
<polygon fill="black" stroke="black" points="3854.46,-36.2 3863.57,-30.79 3853.08,-29.33 3854.46,-36.2"/>
</g>
<!-- make_parallel -->
<g id="node20" class="node">
<title>make_parallel</title>
<ellipse fill="none" stroke="black" cx="3262.84" cy="-18" rx="75.29" ry="18"/>
<text text-anchor="middle" x="3262.84" y="-14.3" font-family="Times,serif" font-size="14.00">make_parallel</text>
</g>
<!-- utility.py&#45;&gt;make_parallel -->
<g id="edge18" class="edge">
<title>utility.py&#45;&gt;make_parallel</title>
<path fill="none" stroke="black" d="M3122.38,-75.83C3149.06,-65.04 3187.12,-49.64 3216.9,-37.59"/>
<polygon fill="black" stroke="black" points="3218.3,-40.8 3226.26,-33.8 3215.67,-34.31 3218.3,-40.8"/>
</g>
<!-- apply_noise -->
<g id="node21" class="node">
<title>apply_noise</title>
<ellipse fill="none" stroke="black" cx="3420.84" cy="-18" rx="64.99" ry="18"/>
<text text-anchor="middle" x="3420.84" y="-14.3" font-family="Times,serif" font-size="14.00">apply_noise</text>
</g>
<!-- utility.py&#45;&gt;apply_noise -->
<g id="edge20" class="edge">
<title>utility.py&#45;&gt;apply_noise</title>
<path fill="none" stroke="black" d="M3133.56,-80.3C3184.75,-70.03 3272.06,-52.3 3346.84,-36 3352.07,-34.86 3357.51,-33.65 3362.95,-32.43"/>
<polygon fill="black" stroke="black" points="3363.73,-35.84 3372.71,-30.22 3362.19,-29.01 3363.73,-35.84"/>
</g>
<!-- int_to_1hot -->
<g id="node22" class="node">
<title>int_to_1hot</title>
<ellipse fill="none" stroke="black" cx="2006.84" cy="-18" rx="62.29" ry="18"/>
<text text-anchor="middle" x="2006.84" y="-14.3" font-family="Times,serif" font-size="14.00">int_to_1hot</text>
</g>
<!-- utility.py&#45;&gt;int_to_1hot -->
<g id="edge21" class="edge">
<title>utility.py&#45;&gt;int_to_1hot</title>
<path fill="none" stroke="black" d="M3038.45,-89.61C2889.17,-90.67 2443.06,-88.83 2077.84,-36 2072.35,-35.21 2066.67,-34.19 2061.01,-33.04"/>
<polygon fill="black" stroke="black" points="2061.43,-29.55 2050.91,-30.87 2059.95,-36.4 2061.43,-29.55"/>
</g>
<!-- view_vector -->
<g id="node23" class="node">
<title>view_vector</title>
<ellipse fill="none" stroke="black" cx="2152.84" cy="-18" rx="65.79" ry="18"/>
<text text-anchor="middle" x="2152.84" y="-14.3" font-family="Times,serif" font-size="14.00">view_vector</text>
</g>
<!-- utility.py&#45;&gt;view_vector -->
<g id="edge22" class="edge">
<title>utility.py&#45;&gt;view_vector</title>
<path fill="none" stroke="black" d="M3038.54,-88.73C2904.54,-87.39 2533.22,-79.71 2227.84,-36 2221.92,-35.15 2215.76,-34.08 2209.65,-32.89"/>
<polygon fill="black" stroke="black" points="2209.94,-29.37 2199.43,-30.79 2208.52,-36.23 2209.94,-29.37"/>
</g>
<!-- make_dir -->
<g id="node24" class="node">
<title>make_dir</title>
<ellipse fill="none" stroke="black" cx="2289.84" cy="-18" rx="53.09" ry="18"/>
<text text-anchor="middle" x="2289.84" y="-14.3" font-family="Times,serif" font-size="14.00">make_dir</text>
</g>
<!-- utility.py&#45;&gt;make_dir -->
<g id="edge23" class="edge">
<title>utility.py&#45;&gt;make_dir</title>
<path fill="none" stroke="black" d="M3038.51,-88.68C2917.96,-87.2 2607.71,-79.14 2352.84,-36 2348.07,-35.19 2343.13,-34.18 2338.22,-33.05"/>
<polygon fill="black" stroke="black" points="2338.78,-29.59 2328.23,-30.61 2337.11,-36.39 2338.78,-29.59"/>
</g>
<!-- extract_labels -->
<g id="node25" class="node">
<title>extract_labels</title>
<ellipse fill="none" stroke="black" cx="2436.84" cy="-18" rx="75.29" ry="18"/>
<text text-anchor="middle" x="2436.84" y="-14.3" font-family="Times,serif" font-size="14.00">extract_labels</text>
</g>
<!-- utility.py&#45;&gt;extract_labels -->
<g id="edge24" class="edge">
<title>utility.py&#45;&gt;extract_labels</title>
<path fill="none" stroke="black" d="M3039.39,-86.12C2939.84,-80.03 2711.26,-64.05 2520.84,-36 2514.22,-35.02 2507.32,-33.87 2500.46,-32.62"/>
<polygon fill="black" stroke="black" points="2500.94,-29.15 2490.47,-30.74 2499.65,-36.03 2500.94,-29.15"/>
</g>
<!-- get_labels_from_object_views -->
<g id="node26" class="node">
<title>get_labels_from_object_views</title>
<ellipse fill="none" stroke="black" cx="2677.84" cy="-18" rx="147.57" ry="18"/>
<text text-anchor="middle" x="2677.84" y="-14.3" font-family="Times,serif" font-size="14.00">get_labels_from_object_views</text>
</g>
<!-- utility.py&#45;&gt;get_labels_from_object_views -->
<g id="edge25" class="edge">
<title>utility.py&#45;&gt;get_labels_from_object_views</title>
<path fill="none" stroke="black" d="M3044.57,-81.31C2978.82,-70.14 2855.45,-49.18 2770.07,-34.67"/>
<polygon fill="black" stroke="black" points="2770.55,-31.2 2760.11,-32.98 2769.38,-38.1 2770.55,-31.2"/>
</g>
<!-- get_label_dict -->
<g id="node27" class="node">
<title>get_label_dict</title>
<ellipse fill="none" stroke="black" cx="2917.84" cy="-18" rx="74.99" ry="18"/>
<text text-anchor="middle" x="2917.84" y="-14.3" font-family="Times,serif" font-size="14.00">get_label_dict</text>
</g>
<!-- utility.py&#45;&gt;get_label_dict -->
<g id="edge26" class="edge">
<title>utility.py&#45;&gt;get_label_dict</title>
<path fill="none" stroke="black" d="M3057.49,-75.83C3030.97,-65.04 2993.12,-49.64 2963.52,-37.59"/>
<polygon fill="black" stroke="black" points="2964.8,-34.33 2954.22,-33.8 2962.16,-40.82 2964.8,-34.33"/>
</g>
<!-- get_datastamp -->
<g id="node28" class="node">
<title>get_datastamp</title>
<ellipse fill="none" stroke="black" cx="3089.84" cy="-18" rx="79.09" ry="18"/>
<text text-anchor="middle" x="3089.84" y="-14.3" font-family="Times,serif" font-size="14.00">get_datastamp</text>
</g>
<!-- utility.py&#45;&gt;get_datastamp -->
<g id="edge27" class="edge">
<title>utility.py&#45;&gt;get_datastamp</title>
<path fill="none" stroke="black" d="M3089.84,-71.7C3089.84,-63.98 3089.84,-54.71 3089.84,-46.11"/>
<polygon fill="black" stroke="black" points="3093.34,-46.1 3089.84,-36.1 3086.34,-46.1 3093.34,-46.1"/>
</g>
<!-- num_cpus -->
<g id="node29" class="node">
<title>num_cpus</title>
<ellipse fill="none" stroke="black" cx="3560.84" cy="-18" rx="57.39" ry="18"/>
<text text-anchor="middle" x="3560.84" y="-14.3" font-family="Times,serif" font-size="14.00">num_cpus</text>
</g>
<!-- utility.py&#45;&gt;num_cpus -->
<g id="edge28" class="edge">
<title>utility.py&#45;&gt;num_cpus</title>
<path fill="none" stroke="black" d="M3138.78,-84.54C3215.23,-77.14 3367.44,-60.65 3494.84,-36 3499.6,-35.08 3504.53,-34.02 3509.45,-32.88"/>
<polygon fill="black" stroke="black" points="3510.57,-36.21 3519.47,-30.48 3508.93,-29.41 3510.57,-36.21"/>
</g>
<!-- ifnone -->
<g id="node30" class="node">
<title>ifnone</title>
<ellipse fill="none" stroke="black" cx="3675.84" cy="-18" rx="39.79" ry="18"/>
<text text-anchor="middle" x="3675.84" y="-14.3" font-family="Times,serif" font-size="14.00">ifnone</text>
</g>
<!-- utility.py&#45;&gt;ifnone -->
<g id="edge29" class="edge">
<title>utility.py&#45;&gt;ifnone</title>
<path fill="none" stroke="black" d="M3141.18,-87.94C3237.5,-85.07 3451.39,-74.53 3626.84,-36 3630.24,-35.25 3633.74,-34.34 3637.21,-33.34"/>
<polygon fill="black" stroke="black" points="3638.39,-36.64 3646.89,-30.31 3636.3,-29.96 3638.39,-36.64"/>
</g>
<!-- parallel -->
<g id="node31" class="node">
<title>parallel</title>
<ellipse fill="none" stroke="black" cx="3779.84" cy="-18" rx="46.29" ry="18"/>
<text text-anchor="middle" x="3779.84" y="-14.3" font-family="Times,serif" font-size="14.00">parallel</text>
</g>
<!-- utility.py&#45;&gt;parallel -->
<g id="edge30" class="edge">
<title>utility.py&#45;&gt;parallel</title>
<path fill="none" stroke="black" d="M3141.39,-88.46C3250.19,-86.51 3510.89,-77.48 3724.84,-36 3728.71,-35.25 3732.68,-34.33 3736.64,-33.31"/>
<polygon fill="black" stroke="black" points="3737.7,-36.65 3746.4,-30.6 3735.82,-29.9 3737.7,-36.65"/>
</g>
<!-- rgbd_view.py -->
<g id="node32" class="node">
<title>rgbd_view.py</title>
<ellipse fill="none" stroke="black" cx="6897.84" cy="-90" rx="71.49" ry="18"/>
<text text-anchor="middle" x="6897.84" y="-86.3" font-family="Times,serif" font-size="14.00">rgbd_view.py</text>
</g>
<!-- create_label -->
<g id="node33" class="node">
<title>create_label</title>
<ellipse fill="none" stroke="black" cx="6748.84" cy="-18" rx="66.89" ry="18"/>
<text text-anchor="middle" x="6748.84" y="-14.3" font-family="Times,serif" font-size="14.00">create_label</text>
</g>
<!-- rgbd_view.py&#45;&gt;create_label -->
<g id="edge31" class="edge">
<title>rgbd_view.py&#45;&gt;create_label</title>
<path fill="none" stroke="black" d="M6865.51,-73.81C6843.3,-63.37 6813.62,-49.43 6789.76,-38.22"/>
<polygon fill="black" stroke="black" points="6791.14,-35 6780.6,-33.92 6788.16,-41.34 6791.14,-35"/>
</g>
<!-- oversample -->
<g id="node34" class="node">
<title>oversample</title>
<ellipse fill="none" stroke="black" cx="6897.84" cy="-18" rx="64.19" ry="18"/>
<text text-anchor="middle" x="6897.84" y="-14.3" font-family="Times,serif" font-size="14.00">oversample</text>
</g>
<!-- rgbd_view.py&#45;&gt;oversample -->
<g id="edge32" class="edge">
<title>rgbd_view.py&#45;&gt;oversample</title>
<path fill="none" stroke="black" d="M6897.84,-71.7C6897.84,-63.98 6897.84,-54.71 6897.84,-46.11"/>
<polygon fill="black" stroke="black" points="6901.34,-46.1 6897.84,-36.1 6894.34,-46.1 6901.34,-46.1"/>
</g>
<!-- build_net -->
<g id="node35" class="node">
<title>build_net</title>
<ellipse fill="none" stroke="black" cx="7033.84" cy="-18" rx="53.89" ry="18"/>
<text text-anchor="middle" x="7033.84" y="-14.3" font-family="Times,serif" font-size="14.00">build_net</text>
</g>
<!-- rgbd_view.py&#45;&gt;build_net -->
<g id="edge33" class="edge">
<title>rgbd_view.py&#45;&gt;build_net</title>
<path fill="none" stroke="black" d="M6927.69,-73.64C6947.94,-63.21 6974.87,-49.36 6996.53,-38.2"/>
<polygon fill="black" stroke="black" points="6998.17,-41.3 7005.46,-33.61 6994.97,-35.07 6998.17,-41.3"/>
</g>
<!-- prevoxelization.py -->
<g id="node36" class="node">
<title>prevoxelization.py</title>
<ellipse fill="none" stroke="black" cx="3675.84" cy="-90" rx="96.38" ry="18"/>
<text text-anchor="middle" x="3675.84" y="-86.3" font-family="Times,serif" font-size="14.00">prevoxelization.py</text>
</g>
<!-- prevoxelization.py&#45;&gt;num_cpus -->
<g id="edge34" class="edge">
<title>prevoxelization.py&#45;&gt;num_cpus</title>
<path fill="none" stroke="black" d="M3648.88,-72.59C3632.71,-62.75 3612,-50.14 3594.74,-39.63"/>
<polygon fill="black" stroke="black" points="3596.42,-36.56 3586.06,-34.35 3592.78,-42.54 3596.42,-36.56"/>
</g>
<!-- prevoxelization.py&#45;&gt;ifnone -->
<g id="edge35" class="edge">
<title>prevoxelization.py&#45;&gt;ifnone</title>
<path fill="none" stroke="black" d="M3675.84,-71.7C3675.84,-63.98 3675.84,-54.71 3675.84,-46.11"/>
<polygon fill="black" stroke="black" points="3679.34,-46.1 3675.84,-36.1 3672.34,-46.1 3679.34,-46.1"/>
</g>
<!-- prevoxelization.py&#45;&gt;parallel -->
<g id="edge36" class="edge">
<title>prevoxelization.py&#45;&gt;parallel</title>
<path fill="none" stroke="black" d="M3700.49,-72.41C3714.95,-62.68 3733.36,-50.29 3748.8,-39.89"/>
<polygon fill="black" stroke="black" points="3751.16,-42.53 3757.5,-34.04 3747.25,-36.72 3751.16,-42.53"/>
</g>
<!-- run_train -->
<g id="node37" class="node">
<title>run_train</title>
<ellipse fill="none" stroke="black" cx="4168.84" cy="-18" rx="53.89" ry="18"/>
<text text-anchor="middle" x="4168.84" y="-14.3" font-family="Times,serif" font-size="14.00">run_train</text>
</g>
<!-- prevoxelization.py&#45;&gt;run_train -->
<g id="edge37" class="edge">
<title>prevoxelization.py&#45;&gt;run_train</title>
<path fill="none" stroke="black" d="M3744.68,-77.35C3756.71,-75.46 3769.13,-73.6 3780.84,-72 3924.84,-52.38 3963.05,-63.01 4105.84,-36 4110.47,-35.12 4115.25,-34.09 4120.02,-32.96"/>
<polygon fill="black" stroke="black" points="4120.88,-36.35 4129.74,-30.55 4119.19,-29.56 4120.88,-36.35"/>
</g>
<!-- run_test -->
<g id="node38" class="node">
<title>run_test</title>
<ellipse fill="none" stroke="black" cx="4047.84" cy="-18" rx="49.29" ry="18"/>
<text text-anchor="middle" x="4047.84" y="-14.3" font-family="Times,serif" font-size="14.00">run_test</text>
</g>
<!-- prevoxelization.py&#45;&gt;run_test -->
<g id="edge38" class="edge">
<title>prevoxelization.py&#45;&gt;run_test</title>
<path fill="none" stroke="black" d="M3745.88,-77.57C3830.83,-63.64 3965.6,-41.3 3988.84,-36 3992.93,-35.07 3997.16,-34.02 4001.39,-32.91"/>
<polygon fill="black" stroke="black" points="4002.45,-36.25 4011.19,-30.26 4000.62,-29.5 4002.45,-36.25"/>
</g>
<!-- par.py -->
<g id="node39" class="node">
<title>par.py</title>
<ellipse fill="none" stroke="black" cx="3521.84" cy="-90" rx="39.79" ry="18"/>
<text text-anchor="middle" x="3521.84" y="-86.3" font-family="Times,serif" font-size="14.00">par.py</text>
</g>
<!-- par.py&#45;&gt;num_cpus -->
<g id="edge39" class="edge">
<title>par.py&#45;&gt;num_cpus</title>
<path fill="none" stroke="black" d="M3531.09,-72.41C3535.68,-64.16 3541.34,-54.01 3546.48,-44.78"/>
<polygon fill="black" stroke="black" points="3549.59,-46.4 3551.4,-35.96 3543.47,-42.99 3549.59,-46.4"/>
</g>
<!-- par.py&#45;&gt;ifnone -->
<g id="edge40" class="edge">
<title>par.py&#45;&gt;ifnone</title>
<path fill="none" stroke="black" d="M3549.02,-76.65C3574.2,-65.2 3611.84,-48.09 3639.58,-35.49"/>
<polygon fill="black" stroke="black" points="3641.28,-38.55 3648.94,-31.23 3638.38,-32.18 3641.28,-38.55"/>
</g>
<!-- par.py&#45;&gt;parallel -->
<g id="edge41" class="edge">
<title>par.py&#45;&gt;parallel</title>
<path fill="none" stroke="black" d="M3551.74,-78.07C3558.01,-75.94 3564.62,-73.8 3570.84,-72 3638.36,-52.45 3657,-54.39 3724.84,-36 3728.38,-35.04 3732.03,-34.01 3735.69,-32.94"/>
<polygon fill="black" stroke="black" points="3736.74,-36.28 3745.33,-30.07 3734.75,-29.57 3736.74,-36.28"/>
</g>
<!-- multi_view_demo.py -->
<g id="node40" class="node">
<title>multi_view_demo.py</title>
<ellipse fill="none" stroke="black" cx="4980.84" cy="-90" rx="104.78" ry="18"/>
<text text-anchor="middle" x="4980.84" y="-86.3" font-family="Times,serif" font-size="14.00">multi_view_demo.py</text>
</g>
<!-- multi_view_demo.py&#45;&gt;nonblocking_custom_capture -->
<g id="edge44" class="edge">
<title>multi_view_demo.py&#45;&gt;nonblocking_custom_capture</title>
<path fill="none" stroke="black" d="M4905.13,-77.54C4892.36,-75.66 4879.23,-73.75 4866.84,-72 4768.63,-58.12 4656.6,-43.25 4576.65,-32.81"/>
<polygon fill="black" stroke="black" points="4576.94,-29.32 4566.57,-31.49 4576.03,-36.26 4576.94,-29.32"/>
</g>
<!-- multi_view_demo.py&#45;&gt;normalize3d -->
<g id="edge42" class="edge">
<title>multi_view_demo.py&#45;&gt;normalize3d</title>
<path fill="none" stroke="black" d="M4908.31,-77C4894.57,-75.06 4880.29,-73.27 4866.84,-72 4478.48,-35.18 4376.77,-85.72 3989.84,-36 3983.29,-35.16 3976.46,-34.04 3969.7,-32.78"/>
<polygon fill="black" stroke="black" points="3970.37,-29.34 3959.88,-30.84 3969.01,-36.21 3970.37,-29.34"/>
</g>
<!-- multi_view_demo.py&#45;&gt;custom_parser -->
<g id="edge43" class="edge">
<title>multi_view_demo.py&#45;&gt;custom_parser</title>
<path fill="none" stroke="black" d="M4925.76,-74.67C4880.93,-63 4817.78,-46.57 4771.71,-34.58"/>
<polygon fill="black" stroke="black" points="4772.42,-31.15 4761.86,-32.02 4770.66,-37.92 4772.42,-31.15"/>
</g>
<!-- multi_view_demo.py&#45;&gt;main -->
<g id="edge48" class="edge">
<title>multi_view_demo.py&#45;&gt;main</title>
<path fill="none" stroke="black" d="M5052.12,-76.77C5101.43,-67.54 5168.27,-53.48 5225.84,-36 5228.42,-35.22 5231.06,-34.35 5233.7,-33.43"/>
<polygon fill="black" stroke="black" points="5234.99,-36.68 5243.16,-29.94 5232.57,-30.12 5234.99,-36.68"/>
</g>
<!-- classify -->
<g id="node41" class="node">
<title>classify</title>
<ellipse fill="none" stroke="black" cx="4854.84" cy="-18" rx="45.49" ry="18"/>
<text text-anchor="middle" x="4854.84" y="-14.3" font-family="Times,serif" font-size="14.00">classify</text>
</g>
<!-- multi_view_demo.py&#45;&gt;classify -->
<g id="edge45" class="edge">
<title>multi_view_demo.py&#45;&gt;classify</title>
<path fill="none" stroke="black" d="M4951.3,-72.59C4932.71,-62.26 4908.65,-48.9 4889.21,-38.09"/>
<polygon fill="black" stroke="black" points="4890.81,-34.98 4880.36,-33.18 4887.41,-41.09 4890.81,-34.98"/>
</g>
<!-- most_common -->
<g id="node42" class="node">
<title>most_common</title>
<ellipse fill="none" stroke="black" cx="5139.84" cy="-18" rx="77.19" ry="18"/>
<text text-anchor="middle" x="5139.84" y="-14.3" font-family="Times,serif" font-size="14.00">most_common</text>
</g>
<!-- multi_view_demo.py&#45;&gt;most_common -->
<g id="edge46" class="edge">
<title>multi_view_demo.py&#45;&gt;most_common</title>
<path fill="none" stroke="black" d="M5017.32,-72.94C5040.82,-62.6 5071.48,-49.09 5096.26,-38.19"/>
<polygon fill="black" stroke="black" points="5097.7,-41.38 5105.44,-34.15 5094.88,-34.97 5097.7,-41.38"/>
</g>
<!-- mode_rows -->
<g id="node43" class="node">
<title>mode_rows</title>
<ellipse fill="none" stroke="black" cx="4981.84" cy="-18" rx="63.09" ry="18"/>
<text text-anchor="middle" x="4981.84" y="-14.3" font-family="Times,serif" font-size="14.00">mode_rows</text>
</g>
<!-- multi_view_demo.py&#45;&gt;mode_rows -->
<g id="edge47" class="edge">
<title>multi_view_demo.py&#45;&gt;mode_rows</title>
<path fill="none" stroke="black" d="M4981.09,-71.7C4981.2,-63.98 4981.33,-54.71 4981.46,-46.11"/>
<polygon fill="black" stroke="black" points="4984.95,-46.15 4981.6,-36.1 4977.96,-46.05 4984.95,-46.15"/>
</g>
<!-- demo.py -->
<g id="node44" class="node">
<title>demo.py</title>
<ellipse fill="none" stroke="black" cx="4807.84" cy="-90" rx="50.09" ry="18"/>
<text text-anchor="middle" x="4807.84" y="-86.3" font-family="Times,serif" font-size="14.00">demo.py</text>
</g>
<!-- demo.py&#45;&gt;nonblocking_custom_capture -->
<g id="edge51" class="edge">
<title>demo.py&#45;&gt;nonblocking_custom_capture</title>
<path fill="none" stroke="black" d="M4770.84,-77.77C4763.58,-75.73 4756,-73.71 4748.84,-72 4687.44,-57.36 4617.67,-44.1 4563.26,-34.51"/>
<polygon fill="black" stroke="black" points="4563.74,-31.04 4553.29,-32.76 4562.53,-37.94 4563.74,-31.04"/>
</g>
<!-- demo.py&#45;&gt;normalize3d -->
<g id="edge49" class="edge">
<title>demo.py&#45;&gt;normalize3d</title>
<path fill="none" stroke="black" d="M4772.27,-77.31C4764.62,-75.2 4756.52,-73.27 4748.84,-72 4415.66,-16.87 4324.66,-80.11 3989.84,-36 3983.29,-35.14 3976.47,-34 3969.71,-32.73"/>
<polygon fill="black" stroke="black" points="3970.38,-29.3 3959.89,-30.79 3969.02,-36.16 3970.38,-29.3"/>
</g>
<!-- demo.py&#45;&gt;custom_parser -->
<g id="edge50" class="edge">
<title>demo.py&#45;&gt;custom_parser</title>
<path fill="none" stroke="black" d="M4786.54,-73.46C4773.61,-64.04 4756.89,-51.85 4742.55,-41.39"/>
<polygon fill="black" stroke="black" points="4744.57,-38.53 4734.43,-35.47 4740.44,-44.19 4744.57,-38.53"/>
</g>
<!-- demo.py&#45;&gt;main -->
<g id="edge55" class="edge">
<title>demo.py&#45;&gt;main</title>
<path fill="none" stroke="black" d="M4844.1,-77.44C4851.56,-75.38 4859.41,-73.43 4866.84,-72 5024.31,-41.68 5070.02,-73.84 5225.84,-36 5228.62,-35.33 5231.46,-34.51 5234.29,-33.6"/>
<polygon fill="black" stroke="black" points="5235.49,-36.89 5243.75,-30.26 5233.16,-30.29 5235.49,-36.89"/>
</g>
<!-- demo.py&#45;&gt;classify -->
<g id="edge52" class="edge">
<title>demo.py&#45;&gt;classify</title>
<path fill="none" stroke="black" d="M4818.98,-72.41C4824.72,-63.87 4831.83,-53.28 4838.2,-43.79"/>
<polygon fill="black" stroke="black" points="4841.12,-45.72 4843.78,-35.47 4835.3,-41.82 4841.12,-45.72"/>
</g>
<!-- demo.py&#45;&gt;most_common -->
<g id="edge53" class="edge">
<title>demo.py&#45;&gt;most_common</title>
<path fill="none" stroke="black" d="M4844.85,-77.78C4852.11,-75.74 4859.69,-73.72 4866.84,-72 4949.15,-52.26 4970.77,-52.21 5053.84,-36 5060.02,-34.8 5066.44,-33.54 5072.87,-32.27"/>
<polygon fill="black" stroke="black" points="5073.82,-35.65 5082.95,-30.29 5072.46,-28.79 5073.82,-35.65"/>
</g>
<!-- demo.py&#45;&gt;mode_rows -->
<g id="edge54" class="edge">
<title>demo.py&#45;&gt;mode_rows</title>
<path fill="none" stroke="black" d="M4840.16,-76C4867.57,-64.97 4907.14,-49.05 4937.5,-36.84"/>
<polygon fill="black" stroke="black" points="4939.04,-39.99 4947.01,-33.01 4936.43,-33.5 4939.04,-39.99"/>
</g>
<!-- multi_view_cnn.py -->
<g id="node45" class="node">
<title>multi_view_cnn.py</title>
<ellipse fill="none" stroke="black" cx="5364.84" cy="-90" rx="96.38" ry="18"/>
<text text-anchor="middle" x="5364.84" y="-86.3" font-family="Times,serif" font-size="14.00">multi_view_cnn.py</text>
</g>
<!-- multi_view_cnn.py&#45;&gt;main -->
<g id="edge57" class="edge">
<title>multi_view_cnn.py&#45;&gt;main</title>
<path fill="none" stroke="black" d="M5342.09,-72.41C5328.28,-62.34 5310.57,-49.42 5296.02,-38.82"/>
<polygon fill="black" stroke="black" points="5298.02,-35.94 5287.88,-32.88 5293.89,-41.6 5298.02,-35.94"/>
</g>
<!-- multi_view_cnn.py&#45;&gt;most_common -->
<g id="edge56" class="edge">
<title>multi_view_cnn.py&#45;&gt;most_common</title>
<path fill="none" stroke="black" d="M5317.4,-74.24C5281.3,-63.01 5231.59,-47.54 5193.94,-35.83"/>
<polygon fill="black" stroke="black" points="5194.75,-32.42 5184.16,-32.79 5192.67,-39.1 5194.75,-32.42"/>
</g>
<!-- visualization_accuracy_and_pose.py -->
<g id="node46" class="node">
<title>visualization_accuracy_and_pose.py</title>
<ellipse fill="none" stroke="black" cx="7163.84" cy="-90" rx="176.27" ry="18"/>
<text text-anchor="middle" x="7163.84" y="-86.3" font-family="Times,serif" font-size="14.00">visualization_accuracy_and_pose.py</text>
</g>
<!-- enhance_depth.py -->
<g id="node47" class="node">
<title>enhance_depth.py</title>
<ellipse fill="none" stroke="black" cx="7452.84" cy="-90" rx="94.78" ry="18"/>
<text text-anchor="middle" x="7452.84" y="-86.3" font-family="Times,serif" font-size="14.00">enhance_depth.py</text>
</g>
<!-- generate_view_dataset_deformed.py -->
<g id="node48" class="node">
<title>generate_view_dataset_deformed.py</title>
<ellipse fill="none" stroke="black" cx="3969.84" cy="-90" rx="180.07" ry="18"/>
<text text-anchor="middle" x="3969.84" y="-86.3" font-family="Times,serif" font-size="14.00">generate_view_dataset_deformed.py</text>
</g>
<!-- generate_view_dataset_deformed.py&#45;&gt;nonblocking_custom_capture -->
<g id="edge58" class="edge">
<title>generate_view_dataset_deformed.py&#45;&gt;nonblocking_custom_capture</title>
<path fill="none" stroke="black" d="M4069.82,-75C4156.17,-62.91 4280.42,-45.52 4367.46,-33.33"/>
<polygon fill="black" stroke="black" points="4368.2,-36.76 4377.62,-31.91 4367.23,-29.83 4368.2,-36.76"/>
</g>
<!-- generate_view_dataset_deformed.py&#45;&gt;train -->
<g id="edge59" class="edge">
<title>generate_view_dataset_deformed.py&#45;&gt;train</title>
<path fill="none" stroke="black" d="M4062.72,-74.53C4113.29,-65.58 4176.62,-52.6 4231.84,-36 4234.28,-35.27 4236.78,-34.45 4239.27,-33.57"/>
<polygon fill="black" stroke="black" points="4240.65,-36.8 4248.79,-30.02 4238.2,-30.24 4240.65,-36.8"/>
</g>
<!-- evaluation.py -->
<g id="node49" class="node">
<title>evaluation.py</title>
<ellipse fill="none" stroke="black" cx="5176.84" cy="-90" rx="73.39" ry="18"/>
<text text-anchor="middle" x="5176.84" y="-86.3" font-family="Times,serif" font-size="14.00">evaluation.py</text>
</g>
<!-- evaluation.py&#45;&gt;nonblocking_custom_capture -->
<g id="edge60" class="edge">
<title>evaluation.py&#45;&gt;nonblocking_custom_capture</title>
<path fill="none" stroke="black" d="M5124.96,-77.2C5115.01,-75.23 5104.63,-73.38 5094.84,-72 4886.96,-42.63 4832.88,-55.52 4623.84,-36 4610.37,-34.74 4596.25,-33.32 4582.26,-31.85"/>
<polygon fill="black" stroke="black" points="4582.41,-28.35 4572.1,-30.78 4581.67,-35.31 4582.41,-28.35"/>
</g>
<!-- evaluation.py&#45;&gt;main -->
<g id="edge65" class="edge">
<title>evaluation.py&#45;&gt;main</title>
<path fill="none" stroke="black" d="M5198.18,-72.76C5211.19,-62.86 5227.94,-50.12 5241.87,-39.52"/>
<polygon fill="black" stroke="black" points="5244.28,-42.09 5250.11,-33.25 5240.04,-36.52 5244.28,-42.09"/>
</g>
<!-- evaluation.py&#45;&gt;classify -->
<g id="edge61" class="edge">
<title>evaluation.py&#45;&gt;classify</title>
<path fill="none" stroke="black" d="M5122.61,-77.66C5113.35,-75.75 5103.82,-73.8 5094.84,-72 5012.72,-55.5 4991.09,-56.4 4909.84,-36 4906.19,-35.08 4902.41,-34.07 4898.64,-33"/>
<polygon fill="black" stroke="black" points="4899.3,-29.55 4888.71,-30.1 4897.33,-36.26 4899.3,-29.55"/>
</g>
<!-- evaluation.py&#45;&gt;most_common -->
<g id="edge63" class="edge">
<title>evaluation.py&#45;&gt;most_common</title>
<path fill="none" stroke="black" d="M5167.89,-72.05C5163.63,-64.01 5158.45,-54.2 5153.7,-45.23"/>
<polygon fill="black" stroke="black" points="5156.74,-43.48 5148.97,-36.28 5150.55,-46.75 5156.74,-43.48"/>
</g>
<!-- evaluation.py&#45;&gt;mode_rows -->
<g id="edge64" class="edge">
<title>evaluation.py&#45;&gt;mode_rows</title>
<path fill="none" stroke="black" d="M5136.91,-74.67C5105.57,-63.42 5061.88,-47.73 5028.85,-35.87"/>
<polygon fill="black" stroke="black" points="5030,-32.57 5019.41,-32.48 5027.63,-39.16 5030,-32.57"/>
</g>
<!-- classify_topk -->
<g id="node50" class="node">
<title>classify_topk</title>
<ellipse fill="none" stroke="black" cx="5390.84" cy="-18" rx="70.39" ry="18"/>
<text text-anchor="middle" x="5390.84" y="-14.3" font-family="Times,serif" font-size="14.00">classify_topk</text>
</g>
<!-- evaluation.py&#45;&gt;classify_topk -->
<g id="edge62" class="edge">
<title>evaluation.py&#45;&gt;classify_topk</title>
<path fill="none" stroke="black" d="M5219.12,-75.17C5253.79,-63.83 5302.96,-47.75 5339.81,-35.69"/>
<polygon fill="black" stroke="black" points="5340.96,-39 5349.38,-32.56 5338.79,-32.35 5340.96,-39"/>
</g>
<!-- entropy_model.py -->
<g id="node51" class="node">
<title>entropy_model.py</title>
<ellipse fill="none" stroke="black" cx="5572.84" cy="-90" rx="93.68" ry="18"/>
<text text-anchor="middle" x="5572.84" y="-86.3" font-family="Times,serif" font-size="14.00">entropy_model.py</text>
</g>
<!-- entropy_model.py&#45;&gt;main -->
<g id="edge68" class="edge">
<title>entropy_model.py&#45;&gt;main</title>
<path fill="none" stroke="black" d="M5507.34,-77.06C5442.44,-64.99 5347.69,-46.64 5311.84,-36 5309.26,-35.23 5306.62,-34.38 5303.98,-33.47"/>
<polygon fill="black" stroke="black" points="5305.1,-30.15 5294.51,-30 5302.69,-36.72 5305.1,-30.15"/>
</g>
<!-- load_data -->
<g id="node52" class="node">
<title>load_data</title>
<ellipse fill="none" stroke="black" cx="5533.84" cy="-18" rx="55.49" ry="18"/>
<text text-anchor="middle" x="5533.84" y="-14.3" font-family="Times,serif" font-size="14.00">load_data</text>
</g>
<!-- entropy_model.py&#45;&gt;load_data -->
<g id="edge66" class="edge">
<title>entropy_model.py&#45;&gt;load_data</title>
<path fill="none" stroke="black" d="M5563.4,-72.05C5558.8,-63.8 5553.18,-53.7 5548.07,-44.54"/>
<polygon fill="black" stroke="black" points="5551.12,-42.82 5543.2,-35.79 5545.01,-46.23 5551.12,-42.82"/>
</g>
<!-- generate_cnn -->
<g id="node53" class="node">
<title>generate_cnn</title>
<ellipse fill="none" stroke="black" cx="5680.84" cy="-18" rx="73.39" ry="18"/>
<text text-anchor="middle" x="5680.84" y="-14.3" font-family="Times,serif" font-size="14.00">generate_cnn</text>
</g>
<!-- entropy_model.py&#45;&gt;generate_cnn -->
<g id="edge67" class="edge">
<title>entropy_model.py&#45;&gt;generate_cnn</title>
<path fill="none" stroke="black" d="M5598.16,-72.59C5612.89,-63.04 5631.63,-50.9 5647.55,-40.58"/>
<polygon fill="black" stroke="black" points="5649.56,-43.44 5656.05,-35.07 5645.76,-37.57 5649.56,-43.44"/>
</g>
<!-- single_view_cnn.py -->
<g id="node54" class="node">
<title>single_view_cnn.py</title>
<ellipse fill="none" stroke="black" cx="5961.84" cy="-90" rx="99.38" ry="18"/>
<text text-anchor="middle" x="5961.84" y="-86.3" font-family="Times,serif" font-size="14.00">single_view_cnn.py</text>
</g>
<!-- single_view_cnn.py&#45;&gt;main -->
<g id="edge74" class="edge">
<title>single_view_cnn.py&#45;&gt;main</title>
<path fill="none" stroke="black" d="M5869.88,-83.01C5703.49,-71.95 5364.74,-48.32 5311.84,-36 5309.06,-35.35 5306.21,-34.55 5303.38,-33.66"/>
<polygon fill="black" stroke="black" points="5304.51,-30.35 5293.91,-30.34 5302.19,-36.95 5304.51,-30.35"/>
</g>
<!-- single_view_cnn.py&#45;&gt;generate_cnn -->
<g id="edge73" class="edge">
<title>single_view_cnn.py&#45;&gt;generate_cnn</title>
<path fill="none" stroke="black" d="M5905.99,-75.09C5858.07,-63.15 5789.22,-46 5740.29,-33.81"/>
<polygon fill="black" stroke="black" points="5741.02,-30.38 5730.47,-31.36 5739.33,-37.18 5741.02,-30.38"/>
</g>
<!-- data_loader_train -->
<g id="node55" class="node">
<title>data_loader_train</title>
<ellipse fill="none" stroke="black" cx="5863.84" cy="-18" rx="91.78" ry="18"/>
<text text-anchor="middle" x="5863.84" y="-14.3" font-family="Times,serif" font-size="14.00">data_loader_train</text>
</g>
<!-- single_view_cnn.py&#45;&gt;data_loader_train -->
<g id="edge69" class="edge">
<title>single_view_cnn.py&#45;&gt;data_loader_train</title>
<path fill="none" stroke="black" d="M5938.62,-72.41C5925.68,-63.17 5909.39,-51.54 5895.32,-41.49"/>
<polygon fill="black" stroke="black" points="5897.07,-38.43 5886.9,-35.47 5893,-44.13 5897.07,-38.43"/>
</g>
<!-- data_loader_test -->
<g id="node56" class="node">
<title>data_loader_test</title>
<ellipse fill="none" stroke="black" cx="6060.84" cy="-18" rx="87.18" ry="18"/>
<text text-anchor="middle" x="6060.84" y="-14.3" font-family="Times,serif" font-size="14.00">data_loader_test</text>
</g>
<!-- single_view_cnn.py&#45;&gt;data_loader_test -->
<g id="edge70" class="edge">
<title>single_view_cnn.py&#45;&gt;data_loader_test</title>
<path fill="none" stroke="black" d="M5985.3,-72.41C5998.37,-63.17 6014.83,-51.54 6029.04,-41.49"/>
<polygon fill="black" stroke="black" points="6031.4,-44.1 6037.55,-35.47 6027.36,-38.39 6031.4,-44.1"/>
</g>
<!-- dataset_generator_train -->
<g id="node57" class="node">
<title>dataset_generator_train</title>
<ellipse fill="none" stroke="black" cx="6287.84" cy="-18" rx="122.38" ry="18"/>
<text text-anchor="middle" x="6287.84" y="-14.3" font-family="Times,serif" font-size="14.00">dataset_generator_train</text>
</g>
<!-- single_view_cnn.py&#45;&gt;dataset_generator_train -->
<g id="edge71" class="edge">
<title>single_view_cnn.py&#45;&gt;dataset_generator_train</title>
<path fill="none" stroke="black" d="M6023.54,-75.75C6077,-64.27 6154.55,-47.62 6211.83,-35.32"/>
<polygon fill="black" stroke="black" points="6212.87,-38.68 6221.92,-33.16 6211.4,-31.83 6212.87,-38.68"/>
</g>
<!-- dataset_generator_test -->
<g id="node58" class="node">
<title>dataset_generator_test</title>
<ellipse fill="none" stroke="black" cx="6545.84" cy="-18" rx="118.08" ry="18"/>
<text text-anchor="middle" x="6545.84" y="-14.3" font-family="Times,serif" font-size="14.00">dataset_generator_test</text>
</g>
<!-- single_view_cnn.py&#45;&gt;dataset_generator_test -->
<g id="edge72" class="edge">
<title>single_view_cnn.py&#45;&gt;dataset_generator_test</title>
<path fill="none" stroke="black" d="M6044.45,-79.86C6136.02,-69.63 6288.07,-52.33 6418.84,-36 6429.13,-34.72 6439.88,-33.33 6450.59,-31.94"/>
<polygon fill="black" stroke="black" points="6451.36,-35.36 6460.82,-30.59 6450.45,-28.42 6451.36,-35.36"/>
</g>
<!-- generate_entropy_dataset.py -->
<g id="node59" class="node">
<title>generate_entropy_dataset.py</title>
<ellipse fill="none" stroke="black" cx="4593.84" cy="-90" rx="145.67" ry="18"/>
<text text-anchor="middle" x="4593.84" y="-86.3" font-family="Times,serif" font-size="14.00">generate_entropy_dataset.py</text>
</g>
<!-- generate_entropy_dataset.py&#45;&gt;nonblocking_custom_capture -->
<g id="edge75" class="edge">
<title>generate_entropy_dataset.py&#45;&gt;nonblocking_custom_capture</title>
<path fill="none" stroke="black" d="M4564.14,-72.23C4547.42,-62.8 4526.36,-50.9 4508.38,-40.76"/>
<polygon fill="black" stroke="black" points="4509.73,-37.5 4499.3,-35.63 4506.29,-43.59 4509.73,-37.5"/>
</g>
</g>
</svg>
